# xmcd
#
# Track frame offsets:
#	150
#	17558
#	37377
#	58807
#	78659
#	96579
#	111607
#	127169
#	146297
#	160061
#	183904
#
# Disc length: 2714 seconds
#
# Revision: 1
# Processed by: cddbd v1.5.2PL0 Copyright (c) Steve Scherf et al.
# Submitted via: audiograbber 1.83.01
#
DISCID=a20a980b
DTITLE=James Taylor Quartet - New World
DYEAR=2009
DGENRE=Funk
TTITLE0=Blacksmith
TTITLE1=Rochester raining
TTITLE2=Same old fool
TTITLE3=New World
TTITLE4=Inner mystic love
TTITLE5=Stonemason
TTITLE6=Get on your feet
TTITLE7=Blue lady
TTITLE8=Hotwire
TTITLE9=Jazz cafe theme
TTITLE10=Milk and honey
EXTD=www.jtq.co.uk
EXTT0=
EXTT1=
EXTT2=
EXTT3=
EXTT4=
EXTT5=
EXTT6=
EXTT7=
EXTT8=
EXTT9=
EXTT10=
PLAYORDER=
